<svg xmlns="http://www.w3.org/2000/svg" width="682" height="683" fill="none"><path fill="url(#a)" d="M317.267 1.333C265.4 7.867 219.8 30.667 184.2 67.6c-28 29.067-45.867 61.333-56 100.8-9.867 38.533-8.4 84.267 4.667 147.067 19.6 94 20.4 99.466 15.6 114.666-5.334 17.334-17.734 29.067-35.334 33.467-27.733 6.8-56-13.333-58.933-41.867-.8-7.6-.667-8.133 2.8-10.8 4.267-3.466 12-3.866 16.133-.933 2 1.333 3.067 4 3.734 8.267 1.066 8.933 5.866 15.333 14.4 19.6 8.933 4.4 14.933 4.4 23.866-.267 20.667-10.8 18.667-43.067-4-64.667C97 359.467 81.8 354 61.4 354.933c-12 .667-14 1.067-24.133 6.134-7.867 3.866-13.2 7.733-18.4 13.2C3.4 390.533-.333 402 .733 429.333 1.667 453.067 4.867 465.733 15 486c15.467 30.933 38.8 54 71.333 70.4 20.4 10.133 47.2 16.933 67.334 16.933 32.666 0 74.266-15.866 101.066-38.4 3.867-3.333 7.6-5.466 8.134-4.8.533.667 3.066 6.934 5.333 13.867 22.267 64.8 75.6 113.733 143.333 131.2 27.734 7.2 55.2 9.067 83.067 5.467 20-2.667 28.267-6.267 33.2-14.8 5.333-9.067 5.6-16.267 1.2-25.2-6.933-14.267-15.733-16.934-42.667-12.8-27.6 4.133-63.2-2-91.466-15.734-39.067-19.2-67.067-52.533-79.2-94.4-5.734-19.733-7.6-34.266-8.534-65.733-.666-26.933-1.066-30.533-3.6-35.333-8.266-15.734-31.333-18.667-42.933-5.334-4.933 5.467-6.533 10.534-7.467 23.734-2.533 33.2-26 61.866-63.466 77.066-18.267 7.334-34.134 9.334-51.067 6-10.533-2-12-2.933-6.8-4.266 2.133-.534 7.6-2.534 12-4.534 20.8-9.333 39.067-26.8 49.067-47.066C201.8 444 203.533 436 203.533 414c0-21.2-1.2-28.667-12.533-81.333-4.267-19.867-9.067-43.467-10.533-52.667-11.2-68.133-4.8-110 23.333-152.267C249.667 58.667 339.133 34.133 414.067 70c22.533 10.667 45.733 29.867 61.066 50.533 10.8 14.4 22.934 39.334 27.2 56.134 9.867 37.733 7.6 72.266-10 154.666-10.666 49.867-12 58.534-12.933 77.334-1.2 24.533 3.467 43.6 15.2 61.866 18.133 28.4 46.933 45.2 81.333 47.6l12.534.934-4.4 3.733c-6.934 6-26.667 15.733-38 18.8-12.667 3.333-38.4 4-49.734 1.2-10.533-2.533-27.466-11.067-35.6-17.733-22.666-18.8-36.266-49.334-38.8-86.934-.933-14.266-1.6-17.2-4.666-22.533-5.067-8.533-15.334-13.6-25.334-12.533-8.8 1.066-16.266 6.266-20.666 14.266-3.067 5.734-3.2 6.934-2.534 22.667 2 46 18.667 86.933 47.6 116.133C451 591.2 498.067 605.067 549.933 595.2c11.734-2.267 30.134-8.4 40.4-13.467C628.2 562.8 659 526.133 673.4 483.067c6.933-20.667 8.533-32.267 8-59.467l-.4-24.267-4.533-8.666c-5.334-10.4-18.4-23.734-27.6-28.4-11.867-6-21.067-8-34.4-7.334-14.667.8-25.867 4.934-37.2 13.734-15.467 12.266-22.667 26.266-22.8 44.933-.134 10.667.133 11.867 3.866 17.2 10.134 14.267 29.467 15.467 41.2 2.533 4.267-4.8 7.467-12.133 7.467-17.6 0-3.333 6.4-7.733 11.333-7.733 2.8 0 5.6 1.2 8 3.467 3.334 3.066 3.6 3.866 2.8 10.266-1.2 9.6-7.466 22.267-14.133 28.934-3.067 3.066-9.6 7.466-14.4 9.733-7.733 3.733-10.267 4.267-19.6 4.133-19.733-.133-35.067-9.6-43.6-26.933-4.267-8.667-4.4-9.2-4.267-25.6.267-14.267 1.067-20.8 6.4-46 16.8-79.6 20.134-100 21.6-133.067 1.334-29.466-2.8-59.333-11.733-84.8C522.867 72.4 458.467 17.467 379.667 3.333c-14.134-2.533-49.334-3.733-62.4-2Z"/><circle cx="284" cy="268" r="25" fill="url(#b)"/><circle cx="391" cy="268" r="25" fill="url(#c)"/><defs><linearGradient id="a" x1="671" x2="114.5" y1="542.5" y2="137" gradientUnits="userSpaceOnUse"><stop stop-color="#4eaefd"/><stop offset="1" stop-color="#18eaf8"/></linearGradient><linearGradient id="b" x1="308.229" x2="267.408" y1="253.261" y2="283.05" gradientUnits="userSpaceOnUse"><stop stop-color="#4eaefd"/><stop offset="1" stop-color="#18eaf8"/></linearGradient><linearGradient id="c" x1="415.229" x2="374.408" y1="253.261" y2="283.05" gradientUnits="userSpaceOnUse"><stop stop-color="#4eaefd"/><stop offset="1" stop-color="#18eaf8"/></linearGradient></defs></svg>
