<svg xmlns="http://www.w3.org/2000/svg" width="32" height="32" fill="none"><path fill="#38BDF8" fill-rule="evenodd" d="M16 6c-4.267 0-6.933 2.12-8 6.362 1.6-2.12 3.467-2.916 5.6-2.386 1.217.302 2.087 1.18 3.05 2.152 1.569 1.583 3.385 3.414 7.35 3.414 4.267 0 6.933-2.12 8-6.361-1.6 2.12-3.466 2.916-5.6 2.385-1.217-.302-2.088-1.18-3.05-2.151C21.78 7.83 19.966 6 16 6Zm-8 9.542c-4.267 0-6.933 2.121-8 6.362 1.6-2.12 3.467-2.915 5.6-2.386 1.217.303 2.088 1.18 3.05 2.152 1.569 1.583 3.384 3.415 7.35 3.415 4.267 0 6.934-2.12 8-6.362-1.6 2.121-3.467 2.916-5.6 2.386-1.217-.303-2.087-1.18-3.05-2.152-1.569-1.582-3.385-3.415-7.35-3.415Z" clip-rule="evenodd"/></svg>
